# xmcd
#
# Track frame offsets: 
#        150
#        11015
#        37322
#        56530
#        79675
#        104407
#        117257
#        144142
#        184762
#        202522
#        219830
#        253290
#        269552
#        288607
#
# Disc length: 4182 seconds
#
# Revision: 18
# Processed by: cddbd v1.5.2PL0 Copyright (c) Steve Scherf et al.
# Submitted via: ExactAudioCopy v1.2
#
DISCID=cb10540e
DTITLE=Various Artist - Ken Burns Jazz: The Story of America's Music [CD5]
DYEAR=2000
DGENRE=Jazz
TTITLE0=Louis Armstrong - Hello, Dolly! [1963 and 1964]
TTITLE1=Stan Getz And Charlie Byrd - Desafinado [1962]
TTITLE2=John Coltrane And Duke Ellington - In A Sentimental Mood [1962
TTITLE2=]
TTITLE3=Duke Ellington And His Orchestra - Tourist Point Of View [1966
TTITLE3=]
TTITLE4=The Miles Davis Quintet - E.S.P. [1965]
TTITLE5=Miles Davis - Spanish Key (Single Version) [1969]
TTITLE6=Weather Report - Birdland [1977]
TTITLE7=Grover Washington, Jr - Mister Magic [1974]
TTITLE8=Herbie Hancock - Rockit [1983]
TTITLE9=Ron Carter And M.C. Solaar - Un Ange En Danger [1994]
TTITLE10=Dexter Gordon - Tanya [1978]
TTITLE11=Wynton Marsalis - Soon All Will Know [1986]
TTITLE12=Cassandra Wilson - Death Letter [1995]
TTITLE13=The Lincoln Center Jazz Orchestra - Take The ''A'' Train [199
TTITLE13=2]
EXTD=YEAR: 2000
EXTT0=
EXTT1=
EXTT2=
EXTT3=
EXTT4=
EXTT5=
EXTT6=
EXTT7=
EXTT8=
EXTT9=
EXTT10=
EXTT11=
EXTT12=
EXTT13=
PLAYORDER=
